<?xml version="1.0" encoding="UTF-8" standalone="no"?>
<svg
   xmlns:dc="http://purl.org/dc/elements/1.1/"
   xmlns:cc="http://creativecommons.org/ns#"
   xmlns:rdf="http://www.w3.org/1999/02/22-rdf-syntax-ns#"
   xmlns:svg="http://www.w3.org/2000/svg"
   xmlns="http://www.w3.org/2000/svg"
   xmlns:sodipodi="http://sodipodi.sourceforge.net/DTD/sodipodi-0.dtd"
   xmlns:inkscape="http://www.inkscape.org/namespaces/inkscape"
   width="210mm"
   height="210mm"
   viewBox="0 0 210 210"
   version="1.1"
   id="svg8"
   inkscape:export-filename="/home/juferoga/GLud_Logo_letters.png"
   inkscape:export-xdpi="96"
   inkscape:export-ydpi="96"
   inkscape:version="1.0.2 (e86c870879, 2021-01-15)"
   sodipodi:docname="GLUD_LOGOw.svg">
  <defs
     id="defs2" />
  <sodipodi:namedview
     id="base"
     pagecolor="#ffffff"
     bordercolor="#666666"
     borderopacity="1.0"
     inkscape:pageopacity="0.0"
     inkscape:pageshadow="2"
     inkscape:zoom="0.52216784"
     inkscape:cx="-23.00576"
     inkscape:cy="357.84803"
     inkscape:document-units="mm"
     inkscape:current-layer="g951"
     inkscape:document-rotation="0"
     showgrid="false"
     inkscape:window-width="1362"
     inkscape:window-height="707"
     inkscape:window-x="0"
     inkscape:window-y="0"
     inkscape:window-maximized="0"
     showguides="false">
    <inkscape:grid
       type="xygrid"
       id="grid4545" />
  </sodipodi:namedview>
  <metadata
     id="metadata5">
    <rdf:RDF>
      <cc:Work
         rdf:about="">
        <dc:format>image/svg+xml</dc:format>
        <dc:type
           rdf:resource="http://purl.org/dc/dcmitype/StillImage" />
        <dc:title></dc:title>
      </cc:Work>
    </rdf:RDF>
  </metadata>
  <g
     inkscape:label="Capa 1"
     inkscape:groupmode="layer"
     id="layer1">
    <g
       inkscape:label="Capa 1"
       id="layer1-6"
       transform="translate(-14.486196,-66.824194)">
      <g
         id="g951"
         transform="matrix(3.9900596,0,0,3.3996058,-914.86969,-277.94319)">
        <rect
           style="fill:none;fill-opacity:1;stroke:#ffffff;stroke-width:0.0766282;stroke-opacity:0;paint-order:stroke markers fill;stop-color:#000000"
           id="rect1241"
           width="53.27179"
           height="62.030125"
           x="232.70338"
           y="101.22144" />
        <path
           id="path231"
           style="fill:#000000;fill-opacity:1;stroke-width:0.0753408"
           d="m 241.87486,106.63568 c -1.27658,0.004 -2.54852,0.23444 -3.29766,0.6284 -0.40821,0.21466 -0.45653,0.38379 -0.16422,0.57489 0.16134,0.10552 0.61033,0.1308 2.51954,0.1368 2.14082,0.008 2.36488,0.023 2.85279,0.19168 1.13861,0.39372 2.06685,1.00524 2.10886,1.3892 0.0244,0.22278 -0.20843,0.33582 -0.49513,0.24002 -0.099,-0.0331 -0.45975,-0.1167 -0.80169,-0.1856 -2.18735,-0.44125 -3.70178,-0.28323 -4.99946,0.52153 -0.90102,0.55877 -2.33087,2.07216 -2.55852,2.70801 -0.23652,0.66056 0.15583,0.59787 1.2529,-0.20004 2.43275,-1.7694 2.6682,-1.88501 4.02332,-1.97761 0.89909,-0.0615 1.26715,0.0146 1.46376,0.30234 0.0973,0.14254 0.10571,0.2126 0.0461,0.38594 -0.0883,0.2567 -0.32828,0.35179 -1.22416,0.48506 -0.77326,0.11504 -1.48858,0.41189 -2.01574,0.83634 -1.11634,0.89878 -2.02754,2.64216 -2.40609,4.60384 -0.1416,0.73423 -0.1531,0.88788 -0.0667,0.88788 0.0328,0 0.37799,-0.57565 0.7671,-1.2793 1.51763,-2.74438 2.52278,-3.66364 4.04029,-3.69544 0.48099,-0.0101 0.64755,0.0213 0.85466,0.16097 0.3478,0.23453 0.42454,0.41534 0.29904,0.70516 -0.10264,0.23701 -0.27531,0.37853 -0.98171,0.80473 -0.5054,0.30494 -1.65952,1.30624 -2.14603,1.86178 -1.11556,1.27387 -1.7691,2.7512 -1.88596,4.26289 -0.0401,0.51812 -0.0337,0.56182 0.0835,0.56182 0.18872,0 0.45528,-0.42346 1.15072,-1.82789 0.91717,-1.85213 1.28614,-2.23183 2.86315,-2.94635 0.55402,-0.25102 0.96965,-0.38368 1.28774,-0.41118 0.61878,-0.0535 0.82141,0.0144 0.79431,0.26632 -0.0174,0.16222 -0.12736,0.23615 -0.70766,0.47548 -1.69905,0.7007 -2.66522,1.68171 -3.30569,3.35677 -0.2527,0.66094 -0.46951,1.87913 -0.39981,2.24697 0.0495,0.26147 0.31656,0.39206 0.46586,0.22786 0.053,-0.0583 0.29237,-0.52123 0.53191,-1.02879 0.74929,-1.58773 0.89709,-1.86002 1.3007,-2.39654 0.46451,-0.61745 1.03786,-1.03679 1.99592,-1.45927 1.0211,-0.45029 1.86259,-0.61144 2.90239,-0.55604 1.31384,0.07 1.90506,0.33625 2.85563,1.28613 1.53635,1.53519 2.98738,3.99538 3.47328,5.88906 0.12039,0.46934 0.15007,0.81963 0.17717,2.09131 0.0554,2.60099 -0.10875,3.16095 -1.76798,6.03241 -0.4547,0.7869 -0.84876,1.73589 -0.84676,2.04145 5.3e-4,0.10979 0.0477,0.41316 0.10478,0.674 0.13887,0.63431 0.13087,1.51304 -0.025,2.74024 -0.18864,1.48518 -0.33088,1.683 -0.94311,1.31151 -0.19311,-0.1172 -0.73366,-0.54971 -1.20123,-0.96129 -0.46757,-0.41157 -0.99132,-0.8122 -1.1638,-0.89 -0.29764,-0.13455 -0.3181,-0.13361 -0.4015,0.0176 -0.29811,0.54033 -0.68225,2.70759 -0.68525,3.87284 -0.002,0.77698 0.0768,1.14653 0.28208,1.31547 0.2509,0.20643 0.67996,-0.39337 0.85997,-1.20223 0.0531,-0.23854 0.18042,-0.78503 0.28298,-1.21438 l 0.1865,-0.78056 0.26175,0.006 c 0.14399,0.004 0.55637,0.15574 0.9163,0.33776 0.52855,0.2673 0.74692,0.33419 1.13544,0.34019 l 0.48101,0.009 0.27612,-0.42136 c 0.18987,-0.28979 0.31563,-0.41103 0.40253,-0.38853 0.11219,0.0292 0.12627,0.11046 0.12627,0.72994 0,0.63005 -0.0234,0.75921 -0.24257,1.34268 -0.13337,0.35504 -0.45434,1.01625 -0.71336,1.46945 -0.90485,1.58307 -0.97093,1.80588 -0.69626,2.34608 0.22629,0.44507 0.49291,0.59882 1.33787,0.77159 l 1.3e-4,0.002 c 1.42844,0.29205 2.62078,0.19845 3.29714,-0.25886 0.29895,-0.20206 0.37445,-0.37188 0.25229,-0.56699 -0.21226,-0.33896 -0.75714,-0.55273 -2.07778,-0.81506 -1.16927,-0.23225 -1.23897,-0.25317 -1.27647,-0.38276 -0.0175,-0.0604 0.0717,-0.41897 0.19828,-0.79697 0.57527,-1.71841 0.8363,-2.90542 0.9312,-4.23431 0.0661,-0.92598 0.21616,-1.40182 0.54771,-1.73699 0.23783,-0.2404 0.70078,-0.48373 0.92058,-0.48384 0.23972,-7e-5 0.9122,-0.47926 1.20615,-0.85929 0.40485,-0.52343 0.70504,-1.1801 1.24099,-2.71485 0.80366,-2.30149 1.03563,-3.85216 0.97653,-6.52855 -0.0615,-2.79038 -0.45045,-4.52653 -1.61334,-7.2021 -0.21738,-0.50013 -0.39515,-0.98092 -0.39515,-1.06892 -0.98292,-1.29778 -2.30973,-1.0414 -2.30973,-1.0414 -0.29915,-0.0998 -0.52388,-0.0671 -1.43254,0.20871 -0.47358,0.14341 -0.51964,0.14387 -0.79185,0.006 -0.58975,-0.29851 -1.09399,-1.09305 -1.09399,-1.72376 0,-0.33566 0.0792,-0.5038 0.62451,-1.32383 0.51009,-0.76718 0.91757,-1.56227 1.04413,-2.03766 0.054,-0.20312 0.0983,-0.62323 0.0983,-0.93363 0,-0.52746 -0.0143,-0.58201 -0.21797,-0.83482 -0.70029,-0.86913 -2.63161,-1.83354 -4.36303,-2.17872 -0.75867,-0.15127 -1.05116,-0.28215 -2.38874,-1.06906 -1.1813,-0.69495 -1.544,-0.82404 -2.73958,-0.97482 -0.40735,-0.0514 -0.83347,-0.0753 -1.259,-0.074 z"
           sodipodi:nodetypes="scccccccsccccccccscccccccscscccccccccccccsccsccccccscccsccccsscccccccsccccccccccccsccsccccs" />
        <text
           inkscape:export-ydpi="96"
           inkscape:export-xdpi="96"
           inkscape:export-filename="/home/juferoga/Imágenes/gludlogow.png"
           id="text47"
           y="142.98193"
           x="277.24771"
           style="font-style:normal;font-weight:normal;font-size:11.8536px;line-height:1.25;font-family:sans-serif;letter-spacing:-0.667103px;word-spacing:0px;fill:#070707;fill-opacity:1;stroke:none;stroke-width:0.29634"
           xml:space="preserve"
           transform="scale(0.88622462,1.1283821)"><tspan
             style="font-style:normal;font-variant:normal;font-weight:normal;font-stretch:normal;font-family:'URW Gothic';-inkscape-font-specification:'URW Gothic';letter-spacing:-0.667103px;fill:#070707;fill-opacity:1;stroke-width:0.29634"
             y="142.98193"
             x="277.24771"
             id="tspan45"
             sodipodi:role="line">GLUD </tspan></text>
        <path
           style="fill:none;stroke:#000000;stroke-width:0.7660014;stroke-linecap:butt;stroke-linejoin:miter;stroke-miterlimit:4;stroke-dasharray:none;stroke-opacity:1"
           d="m 244.658,149.69167 c 28.58129,0 28.58129,0 28.58129,0"
           id="path3720"
           inkscape:connector-curvature="0" />
        <path
           inkscape:connector-curvature="0"
           id="path4527"
           d="m 244.658,149.69167 c 28.58129,0 28.58129,0 28.58129,0"
           style="fill:none;stroke:#000000;stroke-width:0.7660014;stroke-linecap:butt;stroke-linejoin:miter;stroke-miterlimit:4;stroke-dasharray:none;stroke-opacity:1" />
        <path
           style="fill:none;stroke:#000000;stroke-width:0.7660014;stroke-linecap:butt;stroke-linejoin:miter;stroke-miterlimit:4;stroke-dasharray:none;stroke-opacity:1"
           d="m 244.658,149.69167 c 28.58129,0 28.58129,0 28.58129,0"
           id="path4529"
           inkscape:connector-curvature="0" />
        <path
           inkscape:connector-curvature="0"
           id="path4531"
           d="m 244.658,149.69167 c 28.58129,0 28.58129,0 28.58129,0"
           style="fill:none;stroke:#000000;stroke-width:0.7660014;stroke-linecap:butt;stroke-linejoin:miter;stroke-miterlimit:4;stroke-dasharray:none;stroke-opacity:1" />
        <path
           style="fill:none;stroke:#000000;stroke-width:0.7660014;stroke-linecap:butt;stroke-linejoin:miter;stroke-miterlimit:4;stroke-dasharray:none;stroke-opacity:1"
           d="m 244.658,149.69167 c 28.58129,0 28.58129,0 28.58129,0"
           id="path4533"
           inkscape:connector-curvature="0" />
        <path
           inkscape:connector-curvature="0"
           id="path4535"
           d="m 244.658,149.69167 c 28.58129,0 28.58129,0 28.58129,0"
           style="fill:none;stroke:#000000;stroke-width:0.7660014;stroke-linecap:butt;stroke-linejoin:miter;stroke-miterlimit:4;stroke-dasharray:none;stroke-opacity:1" />
        <path
           style="fill:none;stroke:#000000;stroke-width:0.7660014;stroke-linecap:butt;stroke-linejoin:miter;stroke-miterlimit:4;stroke-dasharray:none;stroke-opacity:1"
           d="m 244.658,149.69167 c 28.58129,0 28.58129,0 28.58129,0"
           id="path4537"
           inkscape:connector-curvature="0" />
        <path
           inkscape:connector-curvature="0"
           id="path4539"
           d="m 244.658,149.69167 c 28.58129,0 28.58129,0 28.58129,0"
           style="fill:none;stroke:#000000;stroke-width:0.7660014;stroke-linecap:butt;stroke-linejoin:miter;stroke-miterlimit:4;stroke-dasharray:none;stroke-opacity:1" />
        <path
           style="fill:none;stroke:#000000;stroke-width:0.7660014;stroke-linecap:butt;stroke-linejoin:miter;stroke-miterlimit:4;stroke-dasharray:none;stroke-opacity:1"
           d="m 244.658,149.69167 c 28.58129,0 28.58129,0 28.58129,0"
           id="path4541"
           inkscape:connector-curvature="0" />
        <path
           inkscape:connector-curvature="0"
           id="path4543"
           d="m 242.82957,147.99918 c 32.23815,0 32.23815,0 32.23815,0"
           style="fill:none;stroke:#000000;stroke-width:0.86400831;stroke-linecap:butt;stroke-linejoin:miter;stroke-miterlimit:4;stroke-dasharray:none;stroke-opacity:1" />
        <path
           id="rect252"
           style="fill:#000000;fill-rule:evenodd;stroke-width:0.0718387"
           d="m 270.68431,119.54412 -11.30338,8.14151 0.69368,1.32671 0.0306,-0.022 v 17.56367 h 10.6097 v -18.67864 -6.52688 l 0.66311,-0.47761 z" />
        <path
           id="path279"
           style="fill:#000000;fill-opacity:1;stroke-width:0.0753408"
           d="m 263.73396,120.42872 c -0.12816,-0.052 -0.20204,0.046 -0.43909,0.35886 -0.14149,0.25361 -1.37156,0.45853 -3.00244,0.50027 -1.39907,0.0357 -1.42011,0.0279 -2.09241,-0.78619 -0.25325,-0.30644 -0.67537,-0.81184 -0.93837,-1.12288 -0.21966,-0.25977 -0.44586,-0.57265 -0.55734,-0.7656 l -0.58218,1.78925 c 0.21721,0.3123 0.51438,0.7705 0.94004,1.44627 1.09157,1.73295 1.90397,2.70548 2.39373,2.8657 0.10784,0.0354 0.51703,-0.12827 1.34974,-0.5381 1.85475,-0.91358 2.29609,-0.99583 2.84118,-0.52958 0.27627,0.19318 0.82977,1.21314 1.15398,-0.72511 0.0394,-0.26316 0.0244,-0.41112 -0.0543,-0.54045 -0.0596,-0.098 -0.13006,-0.33336 -0.15626,-0.52306 -0.11101,-0.80132 -0.23841,-1.05927 -0.6278,-1.27085 -0.10091,-0.0797 -0.17024,-0.13475 -0.22846,-0.15849 z m -1.15504,1.57332 c 0.0389,0.0167 0.0486,0.0414 0.0482,0.0758 -0.004,0.32997 -2.45954,1.69017 -3.01345,1.6807 -0.32616,-0.39536 -1.11758,-0.72168 -1.2751,-1.44171 0.11751,-0.0725 2.30986,-0.28615 3.35494,-0.32665 0.57266,-0.0222 0.79989,-0.0246 0.88547,0.012 z" />
      </g>
    </g>
  </g>
</svg>
